PathFileType	4	(X/Y/Z)	C:\Users\WrightLab\Desktop\Jo\P2_Trial10.trc
DataRate	CameraRate	NumFrames	NumMarkers	Units	OrigDataRate	OrigDataStartFrame	OrigNumFrames
100.00	100.00	       14	19	mm	100.00	419	       837
Frame#	Time	Headset_Front			Headset_Back			Headset_Left			Headset_Right			Left_Shoulder			Right_Shoulder			Sternum			C7			Left Elbow			Right Elbow			Left Wrist			Right Wrist			Left ASIS			Right ASIS			S2			Left Knee			Right Knee			Left Ankle			Right Ankle			
		X1	Y1	Z1	X2	Y2	Z2	X3	Y3	Z3	X4	Y4	Z4	X5	Y5	Z5	X6	Y6	Z6	X7	Y7	Z7	X8	Y8	Z8	X9	Y9	Z9	X10	Y10	Z10	X11	Y11	Z11	X12	Y12	Z12	X13	Y13	Z13	X14	Y14	Z14	X15	Y15	Z15	X16	Y16	Z16	X17	Y17	Z17	X18	Y18	Z18	X19	Y19	Z19	

419	4.180	-707.79883	1467.37109	17.96348	-810.55847	1679.95361	-184.19785	-672.72272	1576.04419	-162.06483	-835.68451	1545.31689	-0.25787	-682.38379	1434.12561	-248.06639	-985.01349	1442.68298	-120.19436	-816.24396	1315.06921	-130.20319	-892.26514	1432.25391	-280.22363	-596.86157	1090.55957	-337.73950	-1124.53186	1129.94995	-87.71732	-577.23340	854.18427	-386.31348	-1146.49731	900.78131	20.24271	-766.69391	1028.23950	-129.85225	-892.76489	1015.85449	-100.07037	-875.72046	943.23724	-371.76895	-674.39526	480.18735	-79.47115	-1086.32507	535.26727	-197.94945	-714.04218	152.74002	-143.52831	-1015.67010	97.42776	-203.17361	
420	4.190	-703.80707	1465.52808	25.03640	-807.45868	1678.70642	-173.48831	-670.26117	1573.95142	-151.00674	-831.90033	1543.61255	9.34894	-681.02167	1433.98523	-241.64355	-982.12347	1442.31348	-109.46257	-813.27393	1313.95117	-119.51807	-890.47980	1431.43335	-270.09906	-598.02094	1089.60071	-332.74487	-1122.68774	1131.21045	-74.45028	-578.88245	854.22845	-378.68793	-1145.53760	906.59985	34.05755	-765.49164	1027.76770	-122.00179	-890.44946	1014.78632	-89.50282	-875.32452	942.96075	-364.17041	-671.74445	478.34290	-76.22672	-1082.76282	533.13214	-195.40692	-715.59259	141.16409	-122.09435	-1019.24585	94.87083	-206.05789	
421	4.200	-700.28870	1463.51917	32.64170	-804.79535	1678.68030	-165.50470	-667.89551	1572.65588	-141.50722	-827.61896	1542.99207	17.88831	-679.69037	1432.69690	-233.94922	-979.05609	1442.73718	-99.46186	-810.04474	1313.59827	-112.36143	-890.09955	1431.11536	-260.91425	-598.76630	1089.37573	-328.82880	-1120.70557	1132.62341	-61.18083	-579.53735	854.39484	-376.54260	-1143.04248	908.89844	48.93694	-763.60352	1027.77148	-115.06515	-889.12207	1013.62372	-85.71323	-874.28522	942.58179	-355.61853	-668.98157	476.41226	-73.84159	-1078.59229	530.97052	-193.51216	-714.96313	130.69760	-101.54150	-1021.03052	91.55782	-207.57819	
422	4.210	-696.47498	1462.13232	39.73465	-801.96899	1677.42700	-155.43375	-665.00995	1572.16931	-138.96721	-823.52130	1541.68591	27.33075	-678.25116	1431.74719	-228.02295	-976.14917	1442.09448	-89.67293	-808.30817	1312.72388	-102.01624	-888.53766	1431.16211	-251.90887	-599.77094	1088.34351	-324.28845	-1118.67261	1133.64307	-48.06898	-581.34222	853.89868	-369.91693	-1134.48096	910.08209	67.18915	-761.02441	1028.22400	-107.96900	-886.10443	1013.23737	-77.94306	-873.58972	943.14209	-347.80933	-666.26660	474.31989	-73.04851	-1075.06628	529.68634	-191.13377	-714.84058	120.24420	-79.24505	-1024.34753	87.03111	-211.56187	
423	4.220	-692.23236	1460.91504	48.05350	-798.94379	1676.94580	-146.90794	-661.68781	1571.11633	-131.78865	-819.60919	1539.92188	36.14147	-676.63312	1430.57385	-220.27063	-973.07867	1442.22998	-80.36497	-805.24347	1312.21265	-94.39397	-887.50647	1430.70129	-242.86122	-601.25928	1087.90698	-319.38904	-1116.76086	1134.33691	-36.15850	-582.03906	853.30133	-366.07983	-1130.74377	912.96631	81.12356	-758.96344	1027.98425	-99.96302	-882.93372	1012.51251	-68.16526	-872.41504	941.95654	-339.31171	-663.42706	472.37103	-72.47240	-1070.92590	528.04480	-188.68181	-712.63538	111.96438	-58.29550	-1028.32324	87.48718	-208.64226	
424	4.230	-687.94659	1459.77307	55.35689	-796.26105	1675.69348	-138.04556	-658.54834	1569.83862	-123.55312	-815.51965	1538.47632	43.97819	-674.86816	1429.66907	-212.76358	-969.93207	1441.50903	-70.05627	-803.00500	1311.02307	-85.92486	-885.10254	1429.33301	-233.25890	-601.91730	1086.93042	-314.12518	-1114.63269	1134.54187	-25.62909	-582.53174	853.65332	-363.37769	-1126.37097	916.37579	94.45597	-756.11578	1028.32471	-92.79140	-880.59106	1013.02142	-57.39763	-870.99219	941.04651	-330.71564	-660.48389	468.46518	-72.84474	-1064.64270	525.42487	-186.45979	-707.66779	108.71088	-34.85579	-1031.12463	84.95982	-211.35088	
425	4.240	-683.57654	1458.27930	62.25170	-792.98627	1674.67358	-129.81136	-655.80688	1568.46960	-116.84406	-811.08478	1537.21582	52.90823	-673.31378	1428.38440	-205.86171	-966.94720	1441.23572	-60.46540	-798.36438	1310.44434	-78.79401	-883.41510	1428.63770	-224.25940	-602.87903	1086.33313	-308.61914	-1111.93323	1134.05652	-16.46274				-1122.08020	919.28802	106.35030	-753.04504	1028.16162	-84.31335	-876.69397	1013.07922	-45.62093	-869.81934	940.34521	-320.86603	-657.54004	463.09341	-73.18043	-1061.77808	525.53149	-185.10161	-704.57849	107.96909	-14.80150	-1035.61853	83.67571	-211.14842	
426	4.250	-679.04346	1456.87341	69.43419	-789.16101	1673.02234	-121.07462	-652.24634	1566.97278	-108.89513	-805.82562	1536.40186	62.41728	-670.89331	1427.24255	-198.26141	-963.70087	1440.04370	-50.76752	-795.94208	1309.00366	-68.96471	-881.12158	1427.87170	-215.83101	-604.23486	1084.42004	-302.95148	-1108.61853	1133.22632	-8.66925	-584.97278	852.26154	-353.62454	-1118.64319	921.82471	120.09648	-750.18878	1028.11462	-75.80518	-872.81689	1013.05951	-36.99166	-868.98358	938.77081	-311.64270	-655.98340	457.55338	-76.30882	-1054.66321	522.96515	-181.78506	-701.00439	111.69807	6.18413	-1037.86902	81.39484	-211.96298	
427	4.260	-674.29321	1454.95654	76.35716	-786.08795	1671.83276	-112.73614	-649.48218	1565.60938	-101.95496	-802.16742	1534.95801	69.63106	-668.07446	1425.54822	-190.56372	-960.34436	1439.50952	-42.20723	-793.52057	1308.09363	-60.80055	-878.66541	1426.34851	-205.94299	-604.37939	1083.29712	-297.93805	-1105.23047	1131.85986	-0.48632	-586.81830	852.02216	-349.98917	-1114.22168	923.90747	128.84883	-747.89722	1027.67249	-67.83954	-869.15558	1011.18488	-29.91225	-867.32477	937.27075	-301.71698	-655.97418	451.63953	-79.05982	-1050.72681	522.65149	-178.63104	-695.75269	115.25121	25.58991	-1042.88940	80.77028	-212.15921	
428	4.270	-669.09528	1454.10828	84.01913	-783.19891	1670.57141	-104.70628	-645.89868	1563.76477	-94.74344	-796.46277	1534.31042	78.52855	-665.43347	1424.19336	-183.06650	-957.05341	1438.27966	-32.38825	-789.97723	1307.08411	-52.74841	-875.30029	1424.91406	-196.84438	-604.66980	1082.42041	-292.50735	-1101.74695	1130.44836	7.61006	-587.65332	850.06421	-343.75604	-1109.56238	926.19177	138.65044	-744.31415	1026.65283	-59.17112	-866.83270	1008.93707	-22.04604	-865.63708	935.21820	-290.75256	-659.06781	447.62305	-80.23085	-1045.35828	521.89801	-176.15472	-691.94025	119.14944	43.13524	-1045.50171	83.06245	-208.93765	
429	4.280	-664.96875	1451.80017	91.87303	-779.75287	1668.97876	-97.04750	-642.63855	1562.24316	-88.18826	-792.86719	1532.80872	85.90395	-662.22296	1422.60815	-175.74463	-953.65784	1437.16980	-23.60558	-787.26257	1305.98572	-42.48220	-872.83911	1423.23499	-188.55647	-604.86383	1080.26526	-286.69638	-1098.25830	1128.75635	14.14020	-588.44812	848.59814	-339.42172	-1105.66333	927.79669	149.16904	-739.58704	1025.48376	-51.59283	-861.74280	1007.91321	-11.69933	-863.63507	933.85425	-281.94720	-662.55121	446.07571	-78.91468	-1040.03455	520.89709	-172.36298	-687.87738	123.47116	59.65208	-1048.96106	80.68346	-212.22037	
430	4.290	-660.59839	1450.35193	98.36003	-775.62195	1667.50635	-89.67137	-638.88239	1560.35889	-80.25072	-786.66711	1531.61426	94.83702	-659.77704	1420.43433	-167.70956	-951.51331	1434.98730	-16.04210	-783.07654	1304.90308	-39.20177	-869.86292	1422.30151	-180.48521	-604.02264	1079.37317	-282.31589	-1094.85754	1126.80859	22.64291	-589.70038	846.95905	-334.87979	-1101.40161	928.71356	158.30525	-736.96680	1024.56677	-43.10907	-857.70782	1008.81116	2.07454	-862.36023	932.46881	-272.89172	-667.05505	443.79379	-75.16982	-1034.26331	519.84601	-167.71025	-682.75842	127.98445	74.45601	-1052.25952	82.09926	-208.69826	
431	4.300	-655.47479	1449.09424	106.48135	-772.02600	1665.96619	-81.60471	-635.51703	1558.89685	-73.70167	-782.42004	1530.02112	102.57198	-655.69794	1418.95557	-160.83041	-946.63153	1434.26404	-5.56526	-779.08124	1303.30005	-27.06839	-867.11560	1420.43079	-171.81181	-603.20636	1077.27686	-275.36542	-1091.31030	1124.95032	29.33799	-591.22760	844.71869	-330.31134	-1096.81714	929.58679	167.16095	-732.54773	1023.00305	-34.19062	-854.23138	1005.38367	8.04365	-860.47394	930.81213	-263.51321	-671.03827	441.89545	-69.91554	-1028.80554	519.44843	-162.60378	-678.06812	131.92426	88.41994	-1054.20996	81.98755	-209.01913	
432	4.310	-650.91028	1448.47266	112.63984	-767.88281	1663.96851	-73.75347	-631.41284	1557.00366	-65.91132	-777.71375	1529.27026	110.48890	-652.57458	1416.82166	-153.26317	-942.46606	1433.12732	3.25738	-775.67322	1301.81763	-18.83909	-863.72247	1418.58704	-163.40813	-602.21826	1075.75293	-269.62473	-1087.55371	1123.01282	36.88962	-592.62488	843.60626	-329.14243	-1092.30603	929.97211	175.69315	-728.06726	1020.55988	-25.75126	-849.15546	1003.75861	18.16429	-858.75330	929.28888	-254.56279	-675.16913	440.11127	-63.78689	-1023.10236	519.30170	-157.21581	-672.63263	133.14034	99.20302	-1057.07690	83.29430	-205.99466	
